# xmcd CD database file
#
# Track frame offsets:
#	150
#	30465
#	55886
#	85168
#	118353
#	142953
#	168915
#	195666
#	221780
#	254174
#	286581
#
# Disc length: 4169 seconds
#
# Revision: 0
# Processed by: cddbd v1.5.2PL0 Copyright (c) Steve Scherf et al.
# Submitted via: CDex 1.51
#
DISCID=a110470b
DTITLE=Karunesh - Path Of Compassion
DYEAR=2010
DGENRE=New Age
TTITLE0=Oasis Moon
TTITLE1=Dazzled By The Light
TTITLE2=Shruti's Song
TTITLE3=Zensual
TTITLE4=Stargazing
TTITLE5=Way Of The Winding Valley
TTITLE6=Mount Kailash
TTITLE7=Return Of The Rains
TTITLE8=Inner Journey
TTITLE9=Breathing Silence
TTITLE10=Blessings Rain
EXTD=YEAR: 2010
EXTT0=
EXTT1=
EXTT2=
EXTT3=
EXTT4=
EXTT5=
EXTT6=
EXTT7=
EXTT8=
EXTT9=
EXTT10=
PLAYORDER=
